<svg version="1" xmlns="http://www.w3.org/2000/svg" width="232" height="50" viewBox="0 0 232 50">
  <path d="M44 45.6a52.2 52.2 0 0 1-15.6 2.6c-8.5 0-14.7-2.1-19-6.3-4.2-4-6.6-10-6.5-17C2.9 9.6 14.2.7 29.5.7a32 32 0 0 1 13 2.3l-2.3 8.4c-2.5-1-5.7-2-10.8-2-8.8 0-15.5 5-15.5 15.1 0 9.6 6 15.3 14.7 15.3 2.4 0 4.3-.3 5.2-.7v-9.8h-7.2V21h17.3v24.6zM79.9 28H62.8v11h19.1v8.7H52.2V1.1h28.7v8.6H62.8v9.7h17.1V28zM89.1 47.7V1.1h12.3l9.7 17a135 135 0 0 1 7.6 16h.2c-.7-6.1-.9-12.4-.9-19.4V1.1h9.7v46.6h-11l-10-18c-2.8-5-5.8-11-8.1-16.4h-.2c.2 6.2.4 12.8.4 20.4v14H89zM147.4 1.1v46.6h-10.6V1.1h10.6zM167.4 35.8l-3.3 12h-11L167.4 1h13.8l14.5 46.6h-11.4l-3.6-12h-13.3zm11.8-8l-2.9-9.8-2.4-9c-.8 2.8-1.5 6.3-2.2 9l-2.8 9.9h10.3zM201.9 1.1h10.6v37.8H231v8.8h-29.1V1.1z"/>
</svg>
